Coordinates
version=1
nRows=11
nColumns=36
inDegrees=yes

Units are S.I. units (second, meters, Newtons, ...)
If the header above contains a line with 'inDegrees', this indicates whether rotational values are in degrees (yes) or radians (no).

endheader
time	pelvis_tilt	pelvis_list	pelvis_rotation	pelvis_tx	pelvis_ty	pelvis_tz	hip_flexion_r	hip_adduction_r	hip_rotation_r	knee_angle_r	knee_angle_r_beta	ankle_angle_r	subtalar_angle_r	mtp_angle_r	hip_flexion_l	hip_adduction_l	hip_rotation_l	knee_angle_l	knee_angle_l_beta	ankle_angle_l	subtalar_angle_l	mtp_angle_l	lumbar_extension	lumbar_bending	lumbar_rotation	arm_flex_r	arm_add_r	arm_rot_r	elbow_flex_r	pro_sup_r	arm_flex_l	arm_add_l	arm_rot_l	elbow_flex_l	pro_sup_l
      0.00000000	      4.78601318	     -4.93766772	     -1.08513354	      0.58460333	      1.01973346	     -0.03873438	      0.72348215	      4.38737139	      1.62987436	     12.78444431	      0.22313065	      4.26397543	    -13.04191995	     -5.48412955	     -2.27793499	     -2.78575583	      1.55468132	      9.86553253	      0.17218603	     12.03796866	     -5.42014074	     -5.48412955	     -7.73082303	      6.09232528	     -2.15669079	      4.68881759	     -6.54117636	     18.91561848	     19.26905557	     72.75805759	      1.12375549	     -6.40676860	     20.51958627	     22.67368468	     66.28456413
      0.01666670	      1.12837581	     -4.20080388	     -1.01019430	      0.58600647	      1.01209236	     -0.04256744	      5.30748762	      3.46398279	      1.85564646	     13.97257088	      0.24386737	      7.19383313	    -10.00869770	     -5.75503098	      1.99386530	     -1.72104044	      2.12056412	      9.97702784	      0.17413199	     12.06969420	     -3.74757121	     -5.75503098	     -1.92616813	      5.33476385	     -2.79026672	      3.55244676	     -5.56920859	     16.82470689	     17.65990291	     71.89787194	      0.74375717	     -5.69451623	     19.67445637	     21.10275244	     66.25082325
      0.03333330	     -0.38074834	     -3.64893207	     -1.35383142	      0.58700393	      1.00813803	     -0.04666846	      7.70885160	      2.64161617	      1.22458378	     15.35378575	      0.26797411	      8.46070357	     -9.57789207	     -5.95122662	      3.87227069	     -1.05183620	      1.04867807	     10.10552338	      0.17637466	     12.39979446	     -1.44438886	     -5.95122662	      0.24686229	      4.48917845	     -2.42473066	      2.19952039	     -5.00118441	     11.34558520	     19.00295139	     72.43608877	      0.31045270	     -5.82653819	     18.32473712	     20.89207427	     67.87852532
      0.05000000	     -0.84313657	     -3.33532502	     -1.41255833	      0.59019764	      1.00731387	     -0.05256359	      9.49584078	      2.06533346	      0.95418933	     17.74401235	      0.30969144	      9.17936007	    -10.11115625	     -6.00244489	      4.25084774	     -0.52124573	      0.97700305	      9.83685099	      0.17168544	     12.23410354	     -0.76825586	     -6.00244489	      1.11338261	      4.10663966	     -2.43317126	      1.62359961	     -4.87969582	     10.21427808	     19.32808626	     72.68739934	     -0.33680120	     -6.00692028	     18.02546811	     21.00039791	     68.13570044
      0.06666670	     -0.94751236	     -3.23436154	     -1.33583830	      0.58951237	      1.00589638	     -0.05729611	     11.30979942	      1.67631929	      0.96129741	     20.90898489	      0.36493063	      9.57090410	    -10.83228189	     -6.13661860	      4.44301809	     -0.21648400	      1.10635443	      9.85643487	      0.17202724	     12.21285149	     -0.18908940	     -6.13661860	      1.20500501	      4.10425402	     -2.62367052	      1.37183695	     -4.90149856	      9.43332289	     20.01181833	     71.98396027	     -0.68492769	     -6.12508444	     17.75703961	     21.29898089	     67.61383394
      0.08333330	     -0.92188670	     -3.22786951	     -1.06224809	      0.58794428	      1.00655976	     -0.06086762	     13.24273285	      1.30217799	      0.68367126	     24.65716789	      0.43034876	      9.08402936	    -11.48602599	     -6.29426827	      4.74161113	     -0.00169829	      1.15523611	     10.14893721	      0.17713237	     12.20520799	      0.35865645	     -6.29426827	      1.15220817	      4.11624908	     -2.71371741	      1.37333888	     -4.86278337	      8.81112734	     20.08974922	     71.01826940	     -0.55288288	     -6.12711070	     17.51912116	     21.13233279	     66.74955484
      0.10000000	     -0.60229586	     -3.30890754	     -0.75870104	      0.58855273	      1.00818170	     -0.06630228	     15.35951677	      0.84205476	      0.33060120	     29.60262161	      0.51666321	      8.64712100	    -12.14581445	     -6.31226228	      4.80130293	      0.13614577	      0.91856846	     10.64621977	      0.18581159	     12.03488730	      0.94879267	     -6.31226228	      0.65578426	      4.33957977	     -2.93289196	      1.59126182	     -5.00725810	      8.73411387	     20.13154784	     71.20828683	     -0.28708976	     -6.09099311	     17.55882996	     20.94248030	     66.67399543
      0.11666670	     -0.65615770	     -3.41429124	     -0.60863595	      0.58557248	      1.00746757	     -0.06959184	     18.60118920	      0.44291230	     -0.26926243	     36.44096426	      0.63601481	      8.38310185	    -13.22085512	     -6.34503939	      5.69172932	      0.11786208	      0.42328759	     12.04749928	      0.21026853	     11.91975783	      1.71501578	     -6.34503939	      0.54486975	      4.47607464	     -2.96637967	      1.78735969	     -5.14217238	      8.87779683	     20.03737267	     71.55116596	      0.01836935	     -6.06963270	     17.62532638	     20.84809656	     66.40554112
      0.13333330	     -0.41904792	     -3.57478053	     -0.47103718	      0.58406859	      1.00803634	     -0.07420529	     22.01116870	     -0.00952591	     -0.85012792	     45.03887537	      0.78607667	      8.17551941	    -14.71636641	     -6.38263899	      6.09697602	      0.02955132	     -0.15883886	     13.27504732	      0.23169328	     12.21102618	      2.60412037	     -6.38263899	     -0.06868279	      4.74756578	     -3.05527479	      2.19036078	     -5.35757877	      9.13652829	     20.09592044	     71.84697510	      0.33772643	     -6.09733211	     17.66543443	     20.79911696	     66.05602957
      0.15000000	      0.01546455	     -3.69963562	     -0.41996743	      0.58459564	      1.00995802	     -0.07918983	     25.51247665	     -0.55637014	     -1.18708296	     55.05138578	      0.96082794	      7.70276185	    -16.77885574	     -6.35879745	      5.90407597	     -0.00987299	     -0.72460646	     13.87268731	      0.24212407	     12.72792631	      3.68012738	     -6.35879745	     -0.86334774	      4.98170838	     -3.11941823	      2.59721433	     -5.61660535	      9.75710166	     20.13495158	     70.85421188	      0.59629832	     -6.11088095	     17.65800023	     20.70020333	     64.53460677
      0.16666670	      0.68236662	     -3.98705695	     -0.38897109	      0.57980477	      1.01460584	     -0.08308096	     28.72544958	     -0.75967215	     -1.27434806	     65.22981533	      1.13847505	      6.67470358	    -19.34784760	     -6.36930120	      5.15424922	     -0.17620431	     -1.01988734	     13.82466354	      0.24128590	     13.18005313	      4.73741112	     -6.36930120	     -2.13458926	      5.41957529	     -3.14851789	      3.10515982	     -5.87322770	      9.82689750	     20.48184812	     70.15884015	      0.96006972	     -6.13832842	     17.28968781	     20.82015029	     63.79392170
